<svg width="23" height="23" viewBox="0 0 23 23" fill="none" xmlns="http://www.w3.org/2000/svg">
<path d="M11.5 0C5.15422 0 0 5.15422 0 11.5C0 17.8458 5.15422 23 11.5 23C17.8458 23 23 17.8458 23 11.5C23 5.15422 17.8458 0 11.5 0ZM11.5 22.0024C5.70843 22.0024 0.99759 17.2916 0.99759 11.5C0.99759 5.70843 5.70843 0.99759 11.5 0.99759C17.2916 0.99759 22.0024 5.70843 22.0024 11.5C22.0024 17.2916 17.2916 22.0024 11.5 22.0024Z" fill="#969BAB"/>
<path d="M17.4855 9.00602H13.9939V5.51445C13.9939 5.23734 13.7723 5.01566 13.4951 5.01566H9.50478C9.22767 5.01566 9.00599 5.23734 9.00599 5.51445V9.00602H5.51442C5.23731 9.00602 5.01562 9.2277 5.01562 9.50481V13.4952C5.01562 13.7723 5.23731 13.994 5.51442 13.994H9.00599V17.4855C9.00599 17.7626 9.22767 17.9843 9.50478 17.9843H13.4951C13.7723 17.9843 13.9939 17.7626 13.9939 17.4855V13.994H17.4855C17.7626 13.994 17.9843 13.7723 17.9843 13.4952V9.50481C17.9566 9.2277 17.7349 9.00602 17.4855 9.00602ZM17.0144 12.9964H16.9867H13.4951C13.218 12.9964 12.9963 13.2181 12.9963 13.4952V16.9867H10.0036V13.4952C10.0036 13.2181 9.78189 12.9964 9.50478 12.9964H6.01322V10.0036H9.50478C9.78189 10.0036 10.0036 9.78192 10.0036 9.50481V6.01325H13.0241V9.50481C13.0241 9.78192 13.2457 10.0036 13.5229 10.0036H17.0144V12.9964Z" fill="#969BAB"/>
</svg>
