<svg width="41" height="41" viewBox="0 0 41 41" fill="none" xmlns="http://www.w3.org/2000/svg">
<path d="M37.9971 8.5027H30.2799C29.9482 8.5027 29.6794 8.77152 29.6794 9.10328C29.6794 9.43504 29.9482 9.70387 30.2799 9.70387H37.9971C38.9905 9.70387 39.7988 10.5122 39.7988 11.5056V31.8967C39.7988 32.8902 38.9905 33.6985 37.9971 33.6985H22.8468C22.8447 33.6985 22.8427 33.6982 22.8406 33.6982C22.8385 33.6982 22.8365 33.6985 22.8344 33.6985H18.1657C18.1636 33.6985 18.1616 33.6982 18.1596 33.6982C18.1575 33.6982 18.1555 33.6985 18.1534 33.6985H3.00293C2.00948 33.6985 1.20117 32.8902 1.20117 31.8967V11.5056C1.20117 10.5122 2.00948 9.70387 3.00293 9.70387H12.9218V10.3083C12.9218 10.5091 12.9303 10.708 12.9455 10.905H3.24316C2.77951 10.905 2.40234 11.2822 2.40234 11.7459V26.6414C2.40234 26.9731 2.67117 27.2419 3.00293 27.2419C3.33469 27.2419 3.60352 26.9731 3.60352 26.6414V12.1062H13.1347C13.648 14.2418 15.0532 16.0324 16.9285 17.0493V18.3948C16.9285 18.7101 16.7274 18.9894 16.4279 19.09L10.6313 21.0391C8.75454 21.6695 7.49363 23.4225 7.49363 25.4009V31.2963H3.60352V29.4442C3.60352 29.1124 3.33469 28.8436 3.00293 28.8436C2.67117 28.8436 2.40234 29.1124 2.40234 29.4442V31.6566C2.40234 32.1203 2.77951 32.4975 3.24316 32.4975H37.7568C38.2205 32.4975 38.5977 32.1203 38.5977 31.6566V11.7459C38.5977 11.2822 38.2205 10.905 37.7568 10.905H28.0602C28.0719 10.7324 28.0781 10.5587 28.0781 10.384V3.63002C28.0782 1.62839 26.4498 0 24.4482 0H16.5519C14.5503 0 12.9219 1.62839 12.9219 3.63002V8.5027H3.00293C1.34707 8.5027 0 9.84977 0 11.5056V31.8967C0 33.5526 1.34707 34.8996 3.00293 34.8996H17.5588V37.3965H16.8002C15.2768 37.3965 14.0375 38.6359 14.0375 40.1592C14.0375 40.6228 14.4146 41 14.8783 41H26.1216C26.5852 41 26.9624 40.6228 26.9624 40.1592C26.9624 38.6359 25.723 37.3965 24.1997 37.3965H23.441V34.8996H37.9971C39.6529 34.8996 41 33.5526 41 31.8967V11.5056C41 9.84977 39.6529 8.5027 37.9971 8.5027V8.5027ZM32.3051 31.2961H8.69488V25.4008C8.69488 23.9388 9.62683 22.6435 11.014 22.1776L12.3709 21.7214C12.2931 22.1588 12.2606 22.603 12.2775 23.0506C12.293 23.46 12.3485 23.8657 12.4433 24.2634C11.1301 24.6082 10.1586 25.8051 10.1586 27.225V29.2015C10.1586 29.7606 10.6135 30.2156 11.1726 30.2156H11.7338C12.0655 30.2156 12.3344 29.9467 12.3344 29.615C12.3344 29.2832 12.0655 29.0144 11.7338 29.0144H11.3597V27.225C11.3597 26.1995 12.1936 25.3651 13.2189 25.3643C13.2195 25.3643 13.2199 25.3644 13.2204 25.3644C13.2211 25.3644 13.2219 25.3643 13.2227 25.3643C14.2476 25.3656 15.081 26.1997 15.081 27.2249V29.0143H14.7069C14.3751 29.0143 14.1063 29.2831 14.1063 29.6149C14.1063 29.9467 14.3751 30.2155 14.7069 30.2155H15.2681C15.8272 30.2155 16.2821 29.7606 16.2821 29.2014V27.2249C16.2821 25.6884 15.1444 24.4131 13.6673 24.196C13.5568 23.8075 13.493 23.4086 13.4778 23.0052C13.4554 22.4154 13.5364 21.8323 13.717 21.2686L16.4131 20.362L19.8026 23.748C20.2238 24.1688 20.9094 24.1688 21.3306 23.748L24.6864 20.3956L27.6346 21.3868C27.8491 21.9481 27.9586 22.553 27.953 23.1514C27.948 23.6885 27.848 24.2304 27.6649 24.7385C26.3435 24.9411 25.3282 26.0847 25.3282 27.4609C25.3282 28.9796 26.5648 30.2152 28.0848 30.2152C29.6047 30.2152 30.8414 28.9796 30.8414 27.4609C30.8414 26.2251 30.0226 25.177 28.8987 24.8292C29.0604 24.2883 29.1489 23.7235 29.1543 23.1628C29.1584 22.7246 29.1124 22.2837 29.0203 21.8526L29.9861 22.1773C31.3732 22.6433 32.3051 23.9386 32.3051 25.4005V31.2961ZM23.5318 19.8514L20.5667 22.8135L17.5369 19.7867C17.907 19.4302 18.1297 18.9327 18.1297 18.3947V17.5706C18.8678 17.8169 19.6554 17.9521 20.4733 17.9549C20.4823 17.9549 20.4913 17.955 20.5003 17.955C21.3178 17.955 22.1154 17.8264 22.8703 17.5791V18.3947C22.8703 18.9657 23.1201 19.4919 23.5318 19.8514V19.8514ZM28.0839 25.908H28.0845H28.0853C28.9427 25.9082 29.6403 26.6049 29.6403 27.4611C29.6403 28.3175 28.9425 29.0143 28.0848 29.0143C27.2272 29.0143 26.5295 28.3175 26.5295 27.4611C26.5295 26.605 27.2267 25.9085 28.0839 25.908ZM27.882 12.1062H37.3965V31.2961H33.5063V25.4008C33.5063 23.4223 32.2454 21.6694 30.3688 21.0389L24.5717 19.0898C24.2725 18.9892 24.0714 18.7099 24.0714 18.3947V17.0654C24.718 16.7194 25.3176 16.2765 25.8517 15.7442C26.8713 14.7283 27.5651 13.4736 27.882 12.1062V12.1062ZM14.123 3.63002C14.123 2.29071 15.2125 1.20117 16.5518 1.20117H24.4481C25.7874 1.20117 26.8769 2.29071 26.8769 3.63002V7.22961C26.2667 7.16011 25.5145 6.97713 24.7428 6.54927C24.0631 6.1725 23.4752 5.66817 22.9956 5.05045C22.6875 4.65318 22.1189 4.55885 21.7013 4.83568C20.8791 5.38069 20.0009 5.84258 19.0909 6.2087C17.5139 6.84324 15.8453 7.19414 14.123 7.25612V3.63002ZM14.123 8.45905C15.9999 8.39651 17.8191 8.01526 19.5394 7.32306C20.4573 6.95374 21.3455 6.49426 22.1824 5.95613C22.7363 6.6263 23.4008 7.17876 24.1604 7.59981C25.1519 8.14939 26.117 8.36568 26.877 8.43751V10.384C26.877 12.0883 26.2118 13.6898 25.0039 14.8934C24.4854 15.4102 23.8938 15.8261 23.2528 16.1331C23.2263 16.1434 23.2006 16.1554 23.1762 16.1692C22.342 16.555 21.4263 16.7574 20.4775 16.7537H20.4774C16.9736 16.7417 14.123 13.8502 14.123 10.3082C14.123 10.3004 14.1227 8.4653 14.123 8.45905ZM18.76 34.8996H22.2399V37.3965H18.76V34.8996ZM24.1998 38.5977C24.9368 38.5977 25.5562 39.1109 25.7193 39.7988H15.2807C15.4437 39.1109 16.0631 38.5977 16.8002 38.5977H24.1998Z" fill="black"/>
</svg>
