<svg width="44" height="44" viewBox="0 0 44 44" fill="none" xmlns="http://www.w3.org/2000/svg">
<g clip-path="url(#clip0)">
<path d="M10.802 10.8276C10.3276 10.8276 9.94263 11.2126 9.94263 11.687C9.94263 12.1614 10.3276 12.5464 10.802 12.5464C11.2764 12.5464 11.6614 12.1614 11.6614 11.687C11.6614 11.2126 11.2764 10.8276 10.802 10.8276Z" fill="black"/>
<path d="M18.5359 26.8971H15.958V24.3191C15.958 23.8446 15.5732 23.4597 15.0986 23.4597C14.6241 23.4597 14.2393 23.8446 14.2393 24.3191V26.8971H11.6614C11.1868 26.8971 10.802 27.2819 10.802 27.7564C10.802 28.2308 11.1868 28.6157 11.6614 28.6157H14.2393V31.1937C14.2393 31.6682 14.6242 32.0531 15.0986 32.0531C15.5731 32.0531 15.958 31.6682 15.958 31.1937V28.6157H18.5359C19.0105 28.6157 19.3953 28.2309 19.3953 27.7564C19.3953 27.2818 19.0106 26.8971 18.5359 26.8971Z" fill="black"/>
<path d="M41.7294 27.6705C39.8298 24.3803 35.6295 23.2543 32.3387 25.1543L28.8481 27.1696V19.7071C28.8481 18.7846 28.543 17.8691 27.9888 17.1291L23.6922 11.4005V8.96105C24.6923 8.6063 25.4108 7.65119 25.4108 6.53082V2.57795C25.4107 1.15646 24.2542 0 22.8327 0H7.36473C5.94324 0 4.78669 1.15646 4.78669 2.57795V6.53091C4.78669 7.6511 5.50522 8.60638 6.50536 8.96113V11.4006L2.2084 17.1296C1.65444 17.8692 1.34937 18.7846 1.34937 19.7071V36.3498C1.34937 38.719 3.27686 40.6464 5.64598 40.6464H19.4563C21.3831 43.8762 25.5379 44.9571 28.7946 43.0766L39.2133 37.0612C42.4751 35.1777 43.6386 30.9787 41.7294 27.6705ZM6.50536 2.57795C6.50536 2.10409 6.89087 1.71858 7.36465 1.71858H22.8326C23.3065 1.71858 23.692 2.10409 23.692 2.57795V6.53091C23.692 7.00477 23.3065 7.3902 22.8326 7.3902H7.36473C6.89087 7.3902 6.50544 7.00468 6.50544 6.53091V2.57795H6.50536ZM3.58374 18.1602L8.05215 12.2025C8.16369 12.0539 8.22402 11.8729 8.22402 11.6869V9.10895H21.9733V10.8276H14.2394C13.7648 10.8276 13.38 11.2124 13.38 11.687C13.38 12.1615 13.7648 12.5464 14.2394 12.5464H22.403L26.6134 18.16C26.8885 18.5274 27.0595 18.9669 27.1111 19.421H3.08633C3.1379 18.9668 3.30883 18.5273 3.58374 18.1602ZM5.64607 38.9277C4.22458 38.9277 3.06812 37.7713 3.06812 36.3498V35.4819H18.6808C18.4083 36.5961 18.4101 37.7861 18.7221 38.9278H5.64607V38.9277ZM19.3548 33.7717H3.06803V21.1395H27.1293V28.1617L21.9199 31.1697C20.8337 31.7971 19.9558 32.6903 19.3548 33.7717ZM27.9354 41.5882C25.4693 43.0122 22.3179 42.17 20.8929 39.7022C19.4611 37.2105 20.3288 34.0734 22.7794 32.658L27.4439 29.9649L32.5998 38.8951L27.9354 41.5882ZM38.354 35.5729L34.0883 38.0358L28.9322 29.1054L33.198 26.6428C35.6658 25.2181 38.816 26.0617 40.241 28.5297C41.6723 31.01 40.8019 34.1593 38.354 35.5729Z" fill="black"/>
</g>
<defs>
<clipPath id="clip0">
<rect width="44" height="44" fill="white"/>
</clipPath>
</defs>
</svg>
