<svg width="46" height="46" viewBox="0 0 46 46" fill="none" xmlns="http://www.w3.org/2000/svg">
<path d="M37.3751 38.8125H34.4101V37.1504C34.4101 35.4106 33.7681 33.7491 32.6229 32.4643C32.7673 32.3334 32.9089 32.1984 33.0478 32.0596C35.2587 29.8485 36.4765 26.9183 36.4765 23.8086C36.4765 22.2537 36.1732 20.7451 35.5755 19.32C35.6448 19.0072 35.6823 18.6826 35.6823 18.3493C35.6823 17.0136 35.0957 15.813 34.1674 14.9894L34.4389 14.5191C35.0245 13.5047 34.8733 12.2644 34.1532 11.4204L35.2495 9.52153C35.4044 9.52108 35.5603 9.50068 35.7141 9.45945C36.1784 9.3351 36.5659 9.03808 36.8054 8.62327L38.153 6.28905C38.4012 5.85932 38.2539 5.30984 37.8242 5.06178L29.2654 0.120386C29.0591 0.00116344 28.8136 -0.0310006 28.5837 0.0306321C28.3534 0.0923547 28.1573 0.242843 28.0382 0.449213L26.6905 2.78344C26.3589 3.3579 26.383 4.04053 26.6917 4.57824L25.5947 6.47817C25.2049 6.40602 24.8001 6.42112 24.405 6.52704C23.7082 6.71374 23.1267 7.159 22.7678 7.78072L17.8264 16.3396C17.4673 16.9613 17.3725 17.6874 17.5592 18.3842C17.6651 18.7796 17.8544 19.1376 18.1117 19.4391L17.1364 21.1284C16.8968 21.5432 16.8335 22.0274 16.9579 22.4917C17.0824 22.9559 17.3793 23.3435 17.7941 23.5829L23.2406 26.7275C23.5229 26.8904 23.8313 26.9679 24.136 26.9679C24.7574 26.9679 25.3627 26.6456 25.6951 26.0698L26.6708 24.3798C26.8303 24.4092 26.9922 24.4251 27.1551 24.4251C27.39 24.4251 27.6269 24.3941 27.8603 24.3315C28.5571 24.1448 29.1386 23.6996 29.4975 23.0778L29.768 22.6093C30.1607 22.7408 30.5771 22.8195 31.0094 22.8368C31.0598 23.1574 31.0858 23.4824 31.0858 23.8087C31.0858 25.4788 30.4289 27.0554 29.2362 28.2482C28.0436 29.4409 26.4669 30.0977 24.7968 30.0977H21.6521C21.156 30.0977 20.7536 30.4999 20.7536 30.9961C20.7536 31.4923 21.156 31.8946 21.6521 31.8946H24.7968C25.2922 31.8946 25.6952 32.2976 25.6952 32.793C25.6952 33.2884 25.2922 33.6914 24.7968 33.6914H10.4222C9.92677 33.6914 9.52373 33.2884 9.52373 32.793C9.52373 32.2976 9.92677 31.8946 10.4222 31.8946H13.5662C14.0623 31.8946 14.4646 31.4923 14.4646 30.9961C14.4646 30.4999 14.0623 30.0977 13.5662 30.0977H10.4222C8.93598 30.0977 7.72686 31.3068 7.72686 32.793C7.72686 34.2792 8.93598 35.4883 10.4222 35.4883H12.6936V38.8125H8.62512C7.13892 38.8125 5.92981 40.0216 5.92981 41.5078V45.1016C5.92981 45.5978 6.33213 46 6.82825 46H39.1719C39.6681 46 40.0704 45.5978 40.0704 45.1016V41.5078C40.0704 40.0216 38.8613 38.8125 37.3751 38.8125ZM32.6132 37.1504V38.8125H30.8163V37.1504C30.8163 36.0746 30.3225 35.1121 29.5499 34.4772C30.1212 34.2211 30.6722 33.9179 31.1988 33.57C32.1035 34.5397 32.6132 35.8142 32.6132 37.1504ZM24.7968 35.4883H27.3573C28.2738 35.4883 29.0194 36.2339 29.0194 37.1504V38.8125H22.5763V35.4883H24.7968ZM31.1902 21.0445C29.704 21.0445 28.4948 19.8354 28.4948 18.3492C28.4948 16.863 29.704 15.6539 31.1902 15.6539C32.6763 15.6539 33.8855 16.863 33.8855 18.3492C33.8855 19.8354 32.6763 21.0445 31.1902 21.0445ZM27.2277 7.24345L28.1262 5.68718L33.5728 8.83171L32.6743 10.388L27.2277 7.24345ZM29.145 2.12569L36.1476 6.16866L35.2493 7.72475L28.2466 3.68179L29.145 2.12569ZM18.6925 22.0269L19.5911 20.4707L25.0376 23.6152L24.1391 25.1714L18.6925 22.0269ZM27.9414 22.1794C27.8225 22.3855 27.6285 22.5334 27.3952 22.5959C27.1622 22.6584 26.9203 22.6273 26.7141 22.5082L19.7123 18.4657C19.712 18.4655 19.7118 18.4654 19.7116 18.4653C19.7115 18.4652 19.7113 18.4652 19.7111 18.4651C19.5052 18.3461 19.3574 18.1523 19.2949 17.9192C19.2325 17.6861 19.2636 17.4441 19.3826 17.238L24.324 8.67915C24.443 8.47305 24.637 8.32517 24.8702 8.26264C25.1032 8.2002 25.3451 8.23128 25.5513 8.35033L32.554 12.3933C32.9829 12.641 33.1305 13.1915 32.8828 13.6206L32.6124 14.089C32.165 13.9392 31.6873 13.8569 31.1902 13.8569C28.7133 13.8569 26.6981 15.8721 26.6981 18.3491C26.6981 19.6848 27.2846 20.8855 28.213 21.709L27.9414 22.1794ZM27.1795 31.5351C28.4195 31.1511 29.5583 30.4672 30.5069 29.5187C32.039 27.9866 32.8827 25.9588 32.8827 23.8087C32.8827 23.3858 32.8488 22.9646 32.7829 22.5488C33.399 22.3144 33.9502 21.9482 34.4027 21.4848C34.5866 22.2406 34.6796 23.0175 34.6796 23.8086C34.6796 26.4384 33.6488 28.9173 31.7771 30.789C30.549 32.0171 29.0595 32.8831 27.4376 33.3335C27.4732 33.1588 27.492 32.9781 27.492 32.793C27.4921 32.3389 27.3787 31.9109 27.1795 31.5351ZM14.4905 35.4883H20.7794V38.8125H14.4905V35.4883ZM38.2735 44.2031H7.72668V41.5078C7.72668 41.0124 8.12972 40.6094 8.62512 40.6094H37.3751C37.8705 40.6094 38.2735 41.0124 38.2735 41.5078V44.2031Z" fill="black"/>
<path d="M18.5079 30.9962C18.5079 30.5 18.1056 30.0977 17.6095 30.0977H17.6088C17.1127 30.0977 16.7107 30.5 16.7107 30.9962C16.7107 31.4924 17.1133 31.8946 17.6095 31.8946C18.1057 31.8946 18.5079 31.4924 18.5079 30.9962V30.9962Z" fill="black"/>
</svg>
