<svg width="43" height="43" viewBox="0 0 43 43" fill="none" xmlns="http://www.w3.org/2000/svg">
<path d="M41.4557 1.48449H41.0993H40.7429H40.3866V0.0591583H2.61345V1.48449H2.25705H1.90066H1.54438C0.691491 1.48449 0 2.17562 0 3.02899C0 3.88225 0.691491 4.57337 1.54438 4.57337H1.90066H2.25705H2.61345V5.99871H4.75158V6.3551V6.7115V36.5257H20.1936V37.8252C19.1002 38.1384 18.2928 39.1352 18.2928 40.3274C18.2928 41.7674 19.4652 42.9408 20.9063 42.9408C22.3473 42.9408 23.5197 41.7688 23.5197 40.3274C23.5197 39.1352 22.7123 38.1385 21.6189 37.8252V36.5257H38.2483V6.7115V6.3551V5.99871H40.3864V4.57337H40.7428H41.0992H41.4556C42.3081 4.57337 43 3.88225 43 3.02899C43 2.17562 42.3081 1.48449 41.4557 1.48449ZM22.0936 40.3267C22.0936 40.9815 21.5606 41.5147 20.9056 41.5147C20.2508 41.5147 19.7183 40.9815 19.7183 40.3267C19.7183 39.6717 20.2514 39.1386 20.9064 39.1386C21.5612 39.1386 22.0936 39.6724 22.0936 40.3267ZM36.1103 6.3551V6.7115V34.3877H6.88971V6.7115V6.3551V5.99871H36.1104V6.3551H36.1103Z" fill="#030303"/>
<path d="M19.9326 16.392C20.4079 16.392 20.7935 15.9622 20.7935 15.4311V13.8738C20.7935 13.3439 21.2233 12.9133 21.7544 12.9133H23.5079C24.0382 12.9133 24.469 12.5904 24.469 12.1926C24.469 11.7949 24.0397 11.4723 23.5079 11.4723H21.7544C21.224 11.4723 20.7935 11.0453 20.7935 10.5177C20.7935 9.99049 21.2233 9.5635 21.7544 9.5635H24.0264C24.5567 9.5635 24.9876 9.23705 24.9876 8.8344C24.9876 8.43175 24.5574 8.10542 24.0264 8.10542H20.0325C19.5022 8.10542 19.0717 8.53521 19.0717 9.06628V15.4298C19.0717 15.9623 19.4573 16.392 19.9326 16.392Z" fill="#030303"/>
<path d="M14.2185 24.0083C14.5199 24.0083 14.7649 23.7313 14.7649 23.3888V22.5286C14.7649 22.1868 15.0096 21.9092 15.3108 21.9092C15.6122 21.9092 15.8569 21.9092 15.8569 21.9092C16.1683 21.9092 16.3806 21.9662 16.4941 22.0791C16.6071 22.1933 16.6663 22.4209 16.6709 22.7624L16.6779 23.2594C16.6799 23.4167 16.6956 23.5705 16.7248 23.7208C16.7329 23.7612 16.7443 23.8099 16.7586 23.865C16.7791 23.9443 17.0734 24.0085 17.4149 24.0085C17.7556 24.0085 18.0319 23.9778 18.0319 23.9409C18.0319 23.9039 17.9536 23.8316 17.8958 23.7438C17.863 23.6938 17.8394 23.6353 17.8254 23.5686C17.8052 23.4823 17.7951 23.316 17.7951 23.0716V22.7125C17.7951 22.3374 17.744 22.0583 17.6405 21.8759C17.5855 21.7784 17.5108 21.6936 17.4154 21.6198C17.265 21.5036 17.3034 21.4003 17.4853 21.2552C17.5964 21.1668 17.6847 21.0589 17.7512 20.9322C17.8792 20.6862 17.9433 20.4367 17.9433 20.1823C17.9433 19.9715 17.9105 19.7839 17.8444 19.6194C17.778 19.4547 17.6883 19.3045 17.5751 19.169C17.438 19.0043 17.2706 18.8798 17.0739 18.795C16.8774 18.71 16.5951 18.6645 16.2293 18.6564H14.2886C13.9465 18.6564 13.6688 18.9337 13.6688 19.2766V23.3891C13.6719 23.7306 13.9162 24.0083 14.2185 24.0083ZM14.7642 20.2051C14.7642 19.8631 15.0408 19.5849 15.3815 19.5849C15.7222 19.5849 15.9985 19.5849 15.9985 19.5849C16.229 19.5849 16.4016 19.6162 16.516 19.6789C16.7206 19.7903 16.8232 20.0085 16.8232 20.3324C16.8232 20.6327 16.7171 20.8335 16.5062 20.9355C16.3866 20.9933 16.2077 21.0226 15.9679 21.0226H15.3666C15.0345 21.0226 14.7642 20.7452 14.7642 20.4024V20.2051Z" fill="#030303"/>
<path d="M24.1232 19.2143V23.4501C24.1232 23.8023 24.4093 24.0883 24.7622 24.0883H27.663C28.0153 24.0883 28.3012 23.8663 28.3012 23.5935C28.3012 23.3193 28.0152 23.098 27.663 23.098H25.8869C25.5346 23.098 25.2486 22.8118 25.2486 22.4591V22.3185C25.2486 21.9649 25.5348 21.6796 25.8869 21.6796H27.2886C27.6415 21.6796 27.9275 21.4651 27.9275 21.2007C27.9275 20.9362 27.6415 20.7219 27.2886 20.7219H25.8869C25.5346 20.7219 25.2486 20.4595 25.2486 20.1366C25.2486 19.8136 25.5348 19.5516 25.8869 19.5516H27.5279C27.8808 19.5516 28.1668 19.3327 28.1668 19.0634C28.1668 18.794 27.8808 18.5751 27.5279 18.5751H24.7621C24.4093 18.5757 24.1232 18.8614 24.1232 19.2143Z" fill="#030303"/>
<path d="M11.0633 30.8708H12.8316C13.0463 30.8708 13.2206 30.735 13.2206 30.5688C13.2206 30.4018 13.0469 30.2661 12.8316 30.2661H11.7496C11.5345 30.2661 11.3606 30.0927 11.3606 29.877V29.7915C11.3606 29.577 11.5345 29.4025 11.7496 29.4025H12.6036C12.818 29.4025 12.9927 29.2723 12.9927 29.1114C12.9927 28.95 12.8187 28.8192 12.6036 28.8192H11.7496C11.5345 28.8192 11.3606 28.6597 11.3606 28.4628C11.3606 28.2658 11.5345 28.1064 11.7496 28.1064H12.7498C12.9648 28.1064 13.1388 27.9727 13.1388 27.8085C13.1388 27.6449 12.9647 27.512 12.7498 27.512H11.0633C10.8483 27.512 10.6743 27.686 10.6743 27.9003V30.4825C10.6742 30.6955 10.8483 30.8708 11.0633 30.8708Z" fill="#030303"/>
<path d="M16.96 27.8989V30.481C16.96 30.6967 17.1163 30.8708 17.3087 30.8708C17.5011 30.8708 17.6571 30.6967 17.6571 30.481V30.0516C17.6571 29.8372 17.8141 29.6627 18.0071 29.6627C18.2002 29.6627 18.3568 29.6627 18.3568 29.6627C18.722 29.6627 19.0028 29.5804 19.1994 29.4163C19.3959 29.2527 19.4944 28.9723 19.4944 28.5756C19.4944 28.2123 19.3952 27.9443 19.1979 27.7711C19.0006 27.5985 18.7354 27.5107 18.4023 27.5107H17.349C17.1348 27.5106 16.96 27.6845 16.96 27.8989ZM17.6578 28.4829C17.6578 28.2685 17.7998 28.0939 17.9745 28.0939C18.1489 28.0939 18.2908 28.0939 18.2908 28.0939C18.3642 28.0939 18.4297 28.1021 18.4882 28.1175C18.5943 28.146 18.739 28.2685 18.7718 28.3764C18.7888 28.4348 18.7982 28.5023 18.7982 28.5796C18.7982 28.7549 18.754 28.8816 18.6649 28.9624C18.5758 29.0433 18.4513 29.0836 18.2915 29.0836H17.9751C17.8004 29.0836 17.6584 28.9095 17.6584 28.6938V28.483H17.6578V28.4829Z" fill="#030303"/>
<path d="M24.7413 27.5106C24.5492 27.5106 24.3933 27.6839 24.3933 27.8989V30.481C24.3933 30.6967 24.5492 30.8708 24.7413 30.8708C24.9334 30.8708 25.0899 30.6967 25.0899 30.481V27.8989C25.0899 27.6845 24.9334 27.5106 24.7413 27.5106Z" fill="#030303"/>
<path d="M29.8638 30.8708C30.0552 30.8708 30.2091 30.6967 30.2091 30.481V30.1358C30.2091 29.9215 30.2849 29.6695 30.3783 29.5755C30.4715 29.4808 30.6475 29.5463 30.7714 29.7216L31.3581 30.5526C31.482 30.728 31.7569 30.8706 31.9712 30.8706H32.0965C32.3109 30.8706 32.3819 30.7302 32.2552 30.5568L31.2655 29.2058C31.1388 29.0332 31.1582 28.7694 31.31 28.617L32.1396 27.786C32.2913 27.6342 32.2397 27.5103 32.0254 27.5103H31.8966C31.6821 27.5103 31.3884 27.637 31.2416 27.7943L30.476 28.6114C30.3285 28.7681 30.21 28.7206 30.21 28.5056V27.8987C30.21 27.6844 30.055 27.5105 29.8648 27.5105C29.6742 27.5105 29.5189 27.6838 29.5189 27.8987V30.4809C29.5186 30.6955 29.6731 30.8708 29.8638 30.8708Z" fill="#030303"/>
</svg>
