<svg width="40" height="40" viewBox="0 0 40 40" fill="none" xmlns="http://www.w3.org/2000/svg">
<path d="M34.08 14.3044C33.6872 14.2841 33.3707 14.5641 33.3439 14.9437C32.588 25.6682 29.3897 38.6206 26.5739 38.6244C25.9046 38.344 25.2525 34.6426 24.8214 32.1933C23.909 27.0133 22.9652 21.6571 19.9972 21.6467C17.5113 21.657 16.5431 26.4998 15.5172 31.6271C15.0134 34.1447 14.1704 38.3585 13.4483 38.6205C11.2944 38.6205 7.4797 28.4675 6.62312 14.4412C6.60039 14.0612 6.2762 13.7705 5.89312 13.795C5.51246 13.8181 5.22313 14.145 5.24657 14.5253C5.48276 18.4001 6.31661 24.6988 7.64487 30.0356C9.31317 36.7405 11.2118 39.9998 13.4483 39.9998C15.1652 39.9998 15.8344 37.0722 16.8696 31.8977C17.5331 28.5815 18.6427 23.0319 19.9972 23.026C21.8069 23.0322 22.8038 28.6891 23.463 32.4322C24.2658 36.9895 24.7959 39.9998 26.5516 39.9998C31.8737 39.9998 34.3478 20.3126 34.7192 15.0409C34.7462 14.6611 34.46 14.3314 34.08 14.3044Z" fill="black"/>
<path d="M26.5518 0C25.3045 0 24.1232 0.559671 22.9811 1.10065C21.9297 1.5989 20.937 2.06896 20.0001 2.06896C19.0632 2.06896 18.0704 1.599 17.0191 1.10065C15.8769 0.559671 14.6955 0 13.4483 0C8.81344 0 5.41491 4.81175 5.18447 11.7011C5.17175 12.0817 5.46997 12.4007 5.85073 12.4135C5.858 12.4138 5.86628 12.4138 5.87416 12.4138C6.24381 12.4138 6.55042 12.12 6.56244 11.7472C6.76378 5.73965 9.66002 1.37927 13.4483 1.37927C14.3852 1.37927 15.378 1.84924 16.4293 2.34759C17.5714 2.88867 18.7528 3.44824 20 3.44824C21.2472 3.44824 22.4286 2.88857 23.5707 2.34759C24.622 1.84934 25.6148 1.37927 26.5517 1.37927C30.3117 1.37927 33.1385 5.52407 33.4254 11.4586C33.4444 11.839 33.7772 12.122 34.1481 12.1141C34.5278 12.0956 34.8216 11.7724 34.8033 11.3917C34.4786 4.68446 31.0855 0 26.5518 0Z" fill="black"/>
<path d="M27.931 7.60899H12.069C11.7003 7.60899 11.4021 7.90792 11.4021 8.27585V17.931C11.4021 18.2992 11.7007 18.5978 12.069 18.5978H27.931C28.2992 18.5978 28.5978 18.2989 28.5978 17.931V8.27585C28.5978 7.90762 28.2992 7.60899 27.931 7.60899ZM27.2644 17.2641H12.7358V8.94271H27.2644V17.2641Z" fill="black"/>
<path d="M12.0689 11.0572H1.03441C0.665776 11.0572 0.367554 11.3562 0.367554 11.7241V14.4827C0.367554 14.851 0.66618 15.1496 1.03441 15.1496H12.0689C12.4372 15.1496 12.7358 14.8507 12.7358 14.4827V11.7241C12.7358 11.3559 12.4372 11.0572 12.0689 11.0572ZM11.4024 13.8159H1.70127V12.3907H11.4023V13.8159H11.4024Z" fill="black"/>
<path d="M38.9655 11.0572H27.931C27.5624 11.0572 27.2642 11.3562 27.2642 11.7241V14.4827C27.2642 14.851 27.5628 15.1496 27.931 15.1496H38.9655C39.3338 15.1496 39.6324 14.8507 39.6324 14.4827V11.7241C39.6324 11.3559 39.3338 11.0572 38.9655 11.0572ZM38.299 13.8159H28.598V12.3907H38.299V13.8159Z" fill="black"/>
<path d="M17.5862 9.65514H15.5172C15.1361 9.65514 14.8275 9.96407 14.8275 10.3448V15.862C14.8275 16.2427 15.1361 16.5517 15.5172 16.5517H17.5862C17.9672 16.5517 18.2759 16.2428 18.2759 15.862V10.3448C18.2759 9.96417 17.9672 9.65514 17.5862 9.65514ZM16.8965 15.1724H16.2068V11.0345H16.8965V15.1724Z" fill="black"/>
<path d="M23.7931 9.65514H21.7241C21.343 9.65514 21.0344 9.96407 21.0344 10.3448V15.862C21.0344 16.2427 21.343 16.5517 21.7241 16.5517H23.7931C24.1741 16.5517 24.4828 16.2428 24.4828 15.862V10.3448C24.4828 9.96417 24.1741 9.65514 23.7931 9.65514ZM23.1034 15.1724H22.4137V11.0345H23.1034V15.1724Z" fill="black"/>
<path d="M27.931 12.4138H23.7931C23.412 12.4138 23.1034 12.7227 23.1034 13.1035C23.1034 13.4842 23.412 13.7932 23.7931 13.7932H27.931C28.3121 13.7932 28.6207 13.4842 28.6207 13.1035C28.6207 12.7227 28.3121 12.4138 27.931 12.4138Z" fill="black"/>
<path d="M21.7241 12.4138H17.5862C17.2051 12.4138 16.8965 12.7227 16.8965 13.1035C16.8965 13.4842 17.2051 13.7932 17.5862 13.7932H21.7241C22.1052 13.7932 22.4138 13.4842 22.4138 13.1035C22.4138 12.7227 22.1052 12.4138 21.7241 12.4138Z" fill="black"/>
<path d="M14.8275 12.4138H12.0688C11.6878 12.4138 11.3792 12.7227 11.3792 13.1035C11.3792 13.4842 11.6878 13.7932 12.0688 13.7932H14.8275C15.2085 13.7932 15.5172 13.4842 15.5172 13.1035C15.5172 12.7227 15.2085 12.4138 14.8275 12.4138Z" fill="black"/>
</svg>
