<svg width="47" height="47" viewBox="0 0 47 47" fill="none" xmlns="http://www.w3.org/2000/svg">
<path d="M27.4981 12.129C28.7617 11.017 29.5645 9.39242 29.5645 7.58065V6.06452C29.5645 2.72069 26.8438 0 23.5 0C20.1562 0 17.4355 2.72069 17.4355 6.06452V7.58065C17.4355 9.39242 18.2383 11.017 19.502 12.129H9.85486V36.3871H18.1936V47H22.742H23.5H28.8065V36.3871H37.1452V12.129H27.4981ZM18.9516 7.58065V6.06452C18.9516 3.55608 20.9916 1.51613 23.5 1.51613C26.0085 1.51613 28.0484 3.55608 28.0484 6.06452V7.58065C28.0484 10.0891 26.0085 12.129 23.5 12.129C20.9916 12.129 18.9516 10.0891 18.9516 7.58065ZM11.371 34.871V13.6452H22.742V15.1613H15.9194C14.6655 15.1613 13.6452 16.1816 13.6452 17.4355V21.9839H15.1613V17.4355C15.1613 17.017 15.5017 16.6774 15.9194 16.6774H22.742V18.9251C20.3995 18.7977 19.0236 18.1193 18.8591 17.8312L17.528 18.5567C18.0874 19.5823 20.1789 20.3237 22.742 20.448V21.9634C20.0887 21.8595 18.5173 21.2364 17.9715 20.6906L16.8996 21.7625C17.9108 22.7738 20.0213 23.384 22.742 23.481V24.9941C20.3108 24.8827 18.6605 24.2573 17.904 23.663L16.9678 24.8547C18.1807 25.8075 20.3048 26.4072 22.7427 26.511V28.0196C20.7225 27.8831 19.2094 27.2335 18.7303 26.7544L17.6584 27.8263C18.5741 28.7428 20.5959 29.4068 22.7427 29.5372V30.6122L21.0666 29.7745C20.7915 29.6373 20.4844 29.5645 20.1782 29.5645C19.0835 29.5645 18.1936 30.4552 18.1936 31.5491V31.7129C18.1936 32.568 18.7386 33.3245 19.5505 33.5951C20.0993 33.7778 20.4678 34.2895 20.4678 34.8679V34.871H11.371ZM22.742 45.4839H19.7097V36.3871H22.742V45.4839ZM21.9839 34.871V34.8679C21.9839 33.6361 21.1985 32.5467 20.0304 32.1579C19.8386 32.0934 19.7097 31.9153 19.7097 31.7129V31.5491C19.7097 31.2179 20.0918 30.9806 20.3882 31.1299L23.5 32.6862L26.6119 31.1299C26.909 30.9798 27.2903 31.2186 27.2903 31.5491V31.7129C27.2903 31.9153 27.1615 32.0934 26.9697 32.1579C25.8015 32.5475 25.0161 33.6361 25.0161 34.8679V34.871H21.9839ZM27.2903 45.4839H24.2581V36.3871H27.2903V45.4839ZM35.6298 34.871H35.6291H26.5323V34.8679C26.5323 34.2895 26.9007 33.7778 27.4495 33.5951C28.2607 33.3245 28.8065 32.568 28.8065 31.7129V31.5491C28.8065 30.4552 27.9165 29.5645 26.8219 29.5645C26.5156 29.5645 26.2086 29.6373 25.9342 29.7737L24.2581 30.6122V29.5365C26.5141 29.4015 28.6405 28.6905 29.3932 27.7709L28.2197 26.8097C27.8945 27.2077 26.3458 27.8801 24.2581 28.0188V26.5103C26.696 26.4057 28.8201 25.8068 30.033 24.8539L29.0968 23.6622C28.3403 24.2565 26.69 24.882 24.2588 24.9934V23.4803C26.9795 23.3833 29.09 22.7738 30.1012 21.7618L29.0293 20.6899C28.4835 21.2357 26.9121 21.8588 24.2588 21.9626V20.4473C26.8219 20.3237 28.9134 19.5816 29.4728 18.5559L28.1417 17.8297C27.9772 18.1185 26.6005 18.797 24.2588 18.9243V16.6774H31.0814C31.4991 16.6774 31.8395 17.017 31.8395 17.4355V21.9839H33.3556V17.4355C33.3556 16.1816 32.3353 15.1613 31.0814 15.1613H24.2588V13.6452H35.6298V34.871V34.871Z" fill="black"/>
<path d="M33.3549 26.5323H31.8387V31.0806H33.3549V26.5323Z" fill="black"/>
<path d="M33.3549 23.5H31.8387V25.0161H33.3549V23.5Z" fill="black"/>
<path d="M15.1613 26.5323H13.6451V31.0806H15.1613V26.5323Z" fill="black"/>
<path d="M15.1613 23.5H13.6451V25.0161H15.1613V23.5Z" fill="black"/>
</svg>
